<?xml version="1.0" encoding="UTF-8"?>
<svg width="18px" height="32px" viewBox="0 0 18 32" version="1.1" xmlns="http://www.w3.org/2000/svg" xmlns:xlink="http://www.w3.org/1999/xlink">
    <!-- Generator: Sketch 52.4 (67378) - http://www.bohemiancoding.com/sketch -->
    <title>Group 7</title>
    <desc>Created with Sketch.</desc>
    <g id="Page-1" stroke="none" stroke-width="1" fill="none" fill-rule="evenodd">
        <g id="Desktop-Copy-12" transform="translate(-581.000000, -21.000000)">
            <g id="Group-7" transform="translate(581.000000, 22.000000)">
                <g id="Group-5">
                    <g id="Group">
                        <g id="Group-19-Copy-5">
                            <path d="M15.5410577,26.697234 L2.45955845,26.697234 C1.10100976,26.697234 0,25.5565957 0,24.1491489 L0,10.1538298 C0,7.82531915 1.41584802,5.75021277 3.53407496,4.97276596 C7.07061441,3.67574468 10.9300017,3.67574468 14.4665412,4.97276596 C16.584152,5.75021277 18,7.82531915 18,10.1538298 L18,24.1491489 C18,25.5565957 16.8989902,26.697234 15.5410577,26.697234 Z M5,22.4994292 C5,21.6712329 4.32819635,21 3.5,21 C2.67180365,21 2,21.6712329 2,22.4994292 C2,23.3281963 2.67180365,23.9994292 3.5,23.9994292 C4.32819635,23.9994292 5,23.3281963 5,22.4994292 Z M16,22.4997146 C16,21.6713606 15.3287671,21 14.5,21 C13.6718037,21 13,21.6713606 13,22.4997146 C13,23.3286394 13.6718037,24 14.5,24 C15.3287671,24 16,23.3286394 16,22.4997146 Z M15.2560549,20 C15.6669704,20 16,19.5717056 16,19.0443088 L16,8.9556912 C16,8.42829443 15.6669704,8 15.2560549,8 L2.74394513,8 C2.33302959,8 2,8.42829443 2,8.9556912 L2,19.0443088 C2,19.5717056 2.33302959,20 2.74394513,20 L15.2560549,20 Z" id="Combined-Shape" fill="#2ECC71"></path>
                            <g id="Group-3" transform="translate(4.000000, 0.000000)" stroke="#2ECC71" stroke-linecap="round" stroke-width="1.5">
                                <polyline id="Stroke-13" points="0.0499361702 1.26977348 0.701638298 0.282690047 9.94674468 0.282690047 10.5978085 1.26977348"></polyline>
                                <path d="M2.92540426,0.605594912 L3.55731915,5.33702128" id="Stroke-15"></path>
                                <path d="M7.72323404,0.605594912 L7.09068085,5.33702128" id="Stroke-17"></path>
                            </g>
                        </g>
                    </g>
                    <path d="M4,29.5 L14,29.5" id="Path-4" stroke="#2ECC71" stroke-width="1.5" stroke-linecap="round" fill-rule="nonzero"></path>
                </g>
            </g>
        </g>
    </g>
</svg>